<?xml version="1.0" encoding="utf-8"?>
<!-- Generator: Adobe Illustrator 21.0.0, SVG Export Plug-In . SVG Version: 6.00 Build 0)  -->
<svg version="1.1" id="Layer_1" xmlns="http://www.w3.org/2000/svg" xmlns:xlink="http://www.w3.org/1999/xlink" x="0px" y="0px"
	 viewBox="0 0 841.9 595.3" style="enable-background:new 0 0 841.9 595.3;" xml:space="preserve">
<style type="text/css">
	.st0{fill:#FFFFFF;}
</style>
<path class="st0" d="M421,334.9c20.1,0,36.5-16.3,36.5-36.4c0-20.1-16.3-36.4-36.5-36.4c-20.1,0-36.4,16.3-36.4,36.4
	C384.5,318.6,400.9,334.9,421,334.9z M402.6,302.4l1.4-1.7l1.8,1.2c0,0,0,0,0,0l3.6,16.7c-0.7-0.4-1.3-0.9-1.9-1.4
	C407.8,318.4,402.6,302.4,402.6,302.4z M404.1,286.1c7.3-3.5,15.3-4.2,14.9-10.1c4.8,1.6,10.2,4.5,14.7,7.4c-0.6,1-0.9,2-0.9,3.1
	c0,5,4.2,9.1,9.5,9.1c0.4,0,0.8,0,1.3-0.1c-0.1,2-1.1,3.8-2.5,5l0.4,0.2l-5.9,16.8c-0.6,0.5-1.2,0.9-1.9,1.3l4.6-16.5
	c0.1-0.3-0.1-0.7-0.4-0.8c-0.3-0.1-0.7,0.1-0.8,0.4l-4.8,17.2c0,0.1,0,0.2,0,0.3c-0.6,0.2-1.1,0.5-1.7,0.7l3.3-17.6
	c0.1-0.3-0.2-0.7-0.5-0.7c-0.3-0.1-0.7,0.2-0.7,0.5l-3.4,18.1c0,0,0,0.1,0,0.1c-0.6,0.2-1.3,0.3-1.9,0.4l2.2-18.3
	c0-0.3-0.2-0.7-0.5-0.7c-0.3,0-0.7,0.2-0.7,0.5l-2.2,18.7c-0.6,0.1-1.2,0.1-1.9,0.2l0.9-18.6c0-0.3-0.2-0.6-0.6-0.7
	c-0.3,0-0.6,0.2-0.7,0.6l-0.9,18.7c-0.7,0-1.3,0-2,0l-0.3-18.6c0-0.3-0.3-0.6-0.6-0.6c-0.3,0-0.6,0.3-0.6,0.6l0.3,18.5
	c-0.7-0.1-1.4-0.1-2.1-0.2l-1.3-18.9c0-0.3-0.3-0.6-0.7-0.6c-0.3,0-0.6,0.3-0.6,0.7l1.3,18.6c-0.7-0.1-1.4-0.3-2.1-0.5
	c0,0,0,0,0-0.1l-2.4-18.3c0-0.3-0.4-0.6-0.7-0.5c-0.3,0-0.6,0.4-0.5,0.7l2.3,17.8c-0.7-0.2-1.3-0.5-2-0.8c0,0,0,0,0,0l-3.7-17.1
	l1-0.9c-2.3-0.7-4.3-1.6-5.8-2.7C398.2,295.2,399,288.5,404.1,286.1z"/>
</svg>
